<?xml version="1.0" encoding="utf-8"?>
<!-- Generator: Adobe Illustrator 28.0.0, SVG Export Plug-In . SVG Version: 6.00 Build 0)  -->
<svg version="1.1" id="Capa_1" xmlns="http://www.w3.org/2000/svg" xmlns:xlink="http://www.w3.org/1999/xlink" x="0px" y="0px"
	 viewBox="0 0 525.4 377.7" style="enable-background:new 0 0 525.4 377.7;" xml:space="preserve">
<style type="text/css">
	.st0{fill:#890000;}
</style>
<path class="st0" d="M276.7,167.6c6.7-11.7,14.7-22.5,17.5-35.8c1.7-7.8,0.1-14.8-5-21.1c-5.4-6.6-9.8-13.9-11.9-22.2
	c-2.6-10.3,0.7-16.5,10.6-20.3c1-0.4,2.1-2,2.1-3.1c0.2-6.5,0.1-13,0.1-19.5c0-3.9,1.5-6.1,4.2-5.8c3.5,0.4,4.2,3,4.1,6
	c0,6.6,0,13.2,0,19.9c0,0.2,0.1,0.5,0.2,1.1c12.2,1.5,22.1,8.1,31.4,16.1c9.4-7.8,19.2-14.7,32-16c0-5.7,0-11.2,0-16.6c0-2,0-4,0-6
	c0.1-2.7,1.6-4.4,4.1-4.4c2.6,0,4.1,1.7,4.1,4.4c0.1,6.6,0.1,13.2,0,19.9c-0.1,2.6,0.6,3.9,3.3,4.8c8.9,3.1,12.7,9.9,9.6,18.9
	c-2.3,6.6-6.1,12.7-9.3,19c-2.6,4.9-6.1,9.5-7.8,14.8c-2.2,6.8,0.2,13.7,3.4,19.8c12.1,22.5,24.2,45.1,37,67.1
	c17.9,30.8,36.6,61.3,55,91.8c1.4,2.3,1,4.2-0.8,5.7c-14.8,12.8-30.3,24.5-49.5,30c-3.8,1.1-7.9,1.6-11.8,1.6
	c-43.8,0.1-87.7-0.2-131.5,0.2c-15,0.2-28.4-3.6-40.7-11.6c-9-5.8-17.4-12.5-25.9-19c-4-3-4-4.4-1.4-8.5c2.1-3.5,4.3-7,6.6-10.8
	c-12.6-6-21.9-15.2-27.6-27.5c-3.7,5-6.8,10.3-10.9,14.7c-10.5,11.3-23.7,17.1-39.3,17c-3.2,0-6.6,0.5-9.7-0.1
	c-10.7-1.8-21.3,1.1-31.9,0.2c-5.8-0.5-6.4-0.6-6.4-6.5c0-40.7,0-81.4,0-122.1c0-20.2,0-40.5,0.3-60.7c0.1-8.5,3.7-15.4,12-19.2
	c8.6-3.9,17.2-7.8,25.8-11.9c11.1-5.2,20.4-12.6,26.3-23.5c1.2-2.3,3-3.1,5.5-3.1c18.5,0,37-0.1,55.5,0.1c1.8,0,4.3,1.2,5.2,2.7
	c6.9,12.1,17.3,19.8,29.7,25.3c6.2,2.7,12.2,5.8,18.5,8c12.9,4.6,17.1,14.4,17.1,26.9c0,18.5,0,37,0,55.4
	C276.7,165,276.7,166.3,276.7,167.6z M453,302c-0.9-1.4-1.6-2.4-2.1-3.3c-20.2-34-40.7-67.8-60.6-102c-10-17.2-19.2-34.9-28.3-52.7
	c-6.7-13.2-6.3-26.1,3-38.3c3.1-4.1,5.5-8.6,8-13c1.2-2.1,2.2-4.5,2.8-6.9c1.3-5.4-0.8-8.9-6.3-9.8c-3.5-0.6-7.3-0.7-10.7,0.1
	c-9.7,2.2-17.3,8-24.1,15c-3.4,3.5-5.1,3.6-8.2,0c-5.3-6-11.8-10.5-19.1-13.4c-3.8-1.5-8.3-2.3-12.3-2.1c-9.5,0.4-12.7,6.6-8.1,14.9
	c3,5.5,6.7,10.5,9.7,16c2.5,4.7,5.2,9.5,6.3,14.6c2,9-0.6,17.7-4.7,25.7c-6,11.6-12.6,22.9-18.7,34.5c-1.5,2.8-2.5,6.3-2.5,9.5
	c-0.2,20.6-0.1,41.2-0.1,61.8c0,1.2,0,2.3,0,3.5c1-0.8,1.3-1.7,1.6-2.6c6.7-20.1,13.4-40.2,20.1-60.3c3.3-9.8,6.5-19.6,9.8-29.4
	c0.8-2.4,2.4-3.9,5.1-3c2.7,0.9,3.5,2.9,2.8,5.7c-0.2,0.8-0.6,1.7-0.8,2.5c-11.7,35-23.4,70-35,105c-1.6,4.7-2.2,9.7-3.8,14.3
	c-1.7,5-4,9.8-5.9,14.8c-1,2.6-2.7,4-5.4,3.3c-2.9-0.8-3.3-3.2-2.5-5.7c0.8-2.7,1.7-5.4,3-9.2c-8.6,2.8-16.2-0.7-24.3,0.4
	c-8,1.1-16.4-0.5-24.6-0.8c-1,0-2.4,0.4-2.9,1.2c-2.1,3.1-3.9,6.3-6,9.7c9.8,8.5,20.1,15.9,31.5,21.6c7.8,4,16,5.8,24.9,5.8
	c44.6-0.2,89.2,0,133.8-0.1c3.8,0,7.8-0.2,11.5-1.2C426.3,323.3,439.6,312.8,453,302z M237.8,223.8c0-1.7,0-2.9,0-4.1
	c0.1-12.1-0.1-24.2,0.2-36.3c0.5-20.7,2.4-41.3,7.3-61.5c2.7-11.1,6.6-21.6,13.2-31.3c-12-5.7-23.7-11.3-35.5-16.9
	c1.9,4.3,3.7,8.8,5.8,13.1c1.5,3,0.9,5.3-1.5,7.3c-1.8,1.5-3.6,2.9-5.6,4.5c0.7,0.9,1.2,1.5,1.8,2.1c4.9,5,5,5.3,1.9,11.6
	c-10.4,21.3-20.8,42.5-31.2,63.8c-3.8,7.7-9,15.1-10.9,23.3c-1.9,8.3-0.7,17.4-0.6,26.1c0.1,7.6-0.1,15.3,1.3,22.7
	c5.2,27.4,33.2,38.7,53.4,35.1c0-17,0-34,0-51.2c-6.7,0-13,0-19.4,0c-1.1,0-2.2,0-3.4,0c-2.9,0.1-5.1-1-5.1-4.1c0-3.1,2.1-4.2,5-4.2
	C222.1,223.9,229.6,223.8,237.8,223.8z M119.5,232.1c0,16.9,0,33.2,0,49.5c0,0.6,0.1,1.2,0.2,2.2c2.9,0,5.6,0,8.3,0
	c25.6,0.4,46.3-19.8,46.3-45.3c0-11.9,0.1-23.7,0-35.6c0-1.8-0.4-3.7-1.2-5.3c-13.3-27.5-26.7-54.9-40-82.4
	c-4.8-9.8-5.7-7.9,1.9-15.9c0.1-0.1,0.1-0.5,0.1-0.9c-1.3-1.2-2.8-2.4-4.2-3.6c-4.2-3.6-4.3-4.3-2.1-9.2c1.8-4,3.6-8.1,5.3-11.9
	c-11.7,5.5-23.4,11.1-35.1,16.6c2.4,4.6,5,8.9,6.9,13.4c7.5,18.1,10.8,37.1,11.9,56.5c1.2,19.7,1.1,39.4,1.6,59.1c0,1.4,0,2.9,0,4.5
	c8.1,0,15.6,0,23,0c2.3,0,4.2,0.6,4.9,3.1c0.8,2.9-1.1,5.1-4.6,5.1C135.2,232.1,127.6,232.1,119.5,232.1z M266.4,95.8
	c-0.7-0.1-1.4-0.1-2.1-0.2c-3.1,7.2-6.7,14.1-9.1,21.6c-7,22.6-8.7,46-9,69.5c-0.4,28.8-0.2,57.6-0.3,86.5c0,1.6-0.4,3.6,0.3,4.8
	c1.3,2.2,3.2,5.2,5.2,5.5c5.4,0.8,11.1,0.3,16.7,0.3c0.1-1.1,0.2-1.7,0.2-2.3c0-57.8,0-115.5-0.1-173.3
	C268.3,104,267.1,99.9,266.4,95.8z M92.2,95.9c-0.5,0-1,0-1.6-0.1c-0.6,4.5-1.8,8.9-1.8,13.4c-0.1,56.8-0.1,113.6-0.1,170.4
	c0,1.3,0,2.6,0,4.2c4.7,0,8.8,0,12.9,0c7,0,9.5-2.5,9.5-9.5c0-26.2,0.1-52.4,0-78.6c-0.2-25.4-1.5-50.6-8.2-75.3
	C100.5,111.7,97.8,103.1,92.2,95.9z M174.3,92.1c-0.2,1.3-0.5,2.5-0.6,3.7c-0.9,9.9-1.7,19.9-2.5,29.8c-0.4,4.7-1.8,9.7-0.9,14.1
	c1.9,9.1,5.1,17.8,7.8,26.7c3-7,5.5-14,7.3-21.2c1-3.9,1.5-8.1,1.3-12.1c-0.4-8.7-1.4-17.4-2.2-26.1c-0.5-5-1-10.1-1.5-15
	C179.9,92.1,177.2,92.1,174.3,92.1z M212.3,70.2c-4,36-16.7,69.6-26.6,103.8c0.9-1,1.5-2.1,2-3.2c9.1-18.6,18.1-37.2,27.2-55.8
	c3.5-7.1,3.5-7.1-1.8-12.9c-2.7-2.9-2.6-4.9,0.4-7.6c2.3-2,4.6-3.8,7-5.9C217.7,82.4,215,76.3,212.3,70.2z M136.7,88.4
	c0.3,0.5,0.3,0.6,0.4,0.7c2,1.7,4,3.4,6,5.1c3.4,2.9,3.6,4.8,0.8,8.2c-0.8,1-1.6,1.9-2.7,2.6c-2.6,1.7-2.3,3.4-1.1,6
	c9.7,19.6,19.3,39.4,28.9,59.1c0.5,1.1,1.1,2.1,1.7,3.2c-9.5-34.1-22-67.3-25.9-103C142.2,76.2,139.5,82.3,136.7,88.4z M198.4,70.3
	c7.1-4,4.7-10.5,5.1-16.7c-16.3,0-32.3,0-48.2,0.1c-0.5,0-1.4,0.6-1.6,1.2c-1.8,4.3,0.6,11.8,4.6,14.8
	C169.9,57.6,190.4,59.5,198.4,70.3z M165.1,75.8c10.5,10.8,17,10.2,26.8,0C185.7,67.5,170.4,67.5,165.1,75.8z M155.9,79.4
	c-0.4,0.2-0.8,0.3-1.3,0.5c2.6,11.9,5.2,23.7,7.8,35.6c0.4-0.1,0.7-0.1,1.1-0.2c0.7-8.2,1.5-16.4,2.2-24.5c0.1-1.2,0.1-2.8-0.6-3.5
	C162.3,84.5,159.1,82,155.9,79.4z M193.7,115.2c0.4,0.1,0.7,0.2,1.1,0.3c2.6-11.8,5.3-23.6,7.9-35.4c-0.4-0.2-0.7-0.3-1.1-0.5
	c-2.6,2.1-5.1,4.3-7.9,6.1c-2,1.3-2.5,2.7-2.2,4.9C192.2,98.8,192.9,107,193.7,115.2z"/>
<path class="st0" d="M398.9,303c-0.9,1-1.8,2.8-3.1,3.1c-1.4,0.3-3.3-0.6-4.5-1.5c-0.9-0.7-1.2-2.4-1.6-3.7
	c-14.8-44.3-29.6-88.7-44.4-133c-0.2-0.6-0.4-1.2-0.6-1.8c-0.8-2.6,0-4.9,2.6-5.2c1.6-0.2,4.2,1,5,2.4c1.5,2.5,2.1,5.6,3.1,8.4
	c14,42.1,28,84.2,42,126.3C397.9,299.3,398.2,300.8,398.9,303z"/>
</svg>
